<svg version="1.2" xmlns="http://www.w3.org/2000/svg" viewBox="0 0 2000 400" width="2000" height="400">
	<title>LogoManoar2102_large</title>
	<style>
		.s0 { fill: #193296 } 
		.s1 { fill: #c80046 } 
		.s2 { opacity: .1;fill: #193296 } 
		.s3 { opacity: .5;fill: #193296 } 
		.s4 { opacity: .5;fill: #c80046 } 
		.s5 { opacity: .2;fill: #c80046 } 
		.s6 { opacity: .3;fill: #193296 } 
		.s7 { opacity: .4;fill: #193296 } 
	</style>
	<g id="Background">
		<path id="Path 0" fill-rule="evenodd" class="s0" d="m1690.5 30h279l4.4 2.2c3.1 1.6 5.1 3.6 6.5 6.3 2.1 4 2.1 4.5 2.1 156 0 117-0.3 152.8-1.2 155.5-0.7 1.9-2.3 4.5-3.5 5.8-1.3 1.2-5 2.9-8.3 3.7-5.1 1.3-24.8 1.5-132 1.4-69.3 0-131.5-0.4-138.2-0.7-10-0.6-12.6-1.1-15-2.8-1.5-1.1-3.7-3.8-4.8-6-2-3.8-2-5.9-2-156.4 0-152 0-152.5 2.1-156.5 1.4-2.7 3.4-4.7 6.5-6.3zm73.5 57.2c-2.5 1.5-6.7 4.9-9.3 7.7-2.6 2.9-6 7.7-7.5 10.9l-2.7 5.8-0.5 194.5h42v-185l66.5 0.5c8.9 4.2 13.6 7.4 16.2 9.8 2.8 2.5 5.8 6.6 7.2 9.8 2.1 4.6 2.5 7.3 2.9 18.9 0.3 10.8 0.1 14.6-1.3 19-0.9 3-3.2 7.6-5.1 10.2-1.9 2.6-5.6 6.1-8.2 7.8-2.6 1.7-7 3.7-9.7 4.6-3.4 1-11.1 1.7-24 2l-19 0.6-22.3 38.3 32.3 0.4c22.4 27.5 29.4 35.9 30 36.5 0.5 0.6 5.7 6.8 11.5 13.8l10.5 12.8c46.9 0 52.3-0.3 51.8-1.3-0.4-0.7-12.8-15.8-27.5-33.5-14.8-17.7-26.7-32.4-26.6-32.6 0.1-0.2 4.8-2.5 10.3-5.1 8.7-4.2 11.1-5.9 19-13.9 7.2-7.3 9.9-10.8 13.2-17.6 2.3-4.7 5-11.5 5.9-15 1.4-5.1 1.8-10.6 1.8-24.5 0-15.6-0.3-19.1-2.2-25.8-1.2-4.3-3.7-10.6-5.4-14-1.7-3.4-5-8.7-7.4-11.7-2.3-3.1-5.6-6.8-7.3-8.3-1.7-1.5-5.3-4.2-7.9-6.1-2.6-1.8-7.1-4.5-10-6-2.9-1.4-9.2-3.9-14-5.3l-8.7-2.7c-71.9-0.5-83-0.3-86 0.7-2.2 0.7-6.1 2.4-8.5 3.8zm-1724.5-22.1c4.6-0.1 7.2 0.6 11.4 2.7 3 1.5 6.4 4.1 7.6 5.8 1.2 1.6 10 16.5 19.5 33 9.4 16.5 18.6 32.4 20.2 35.5 1.7 3 3.4 5.9 3.8 6.5 0.4 0.5 9.4 16 20 34.5 10.5 18.4 20.6 35.9 22.2 39 1.7 3 3.8 6.6 4.7 8 0.9 1.3 5.7 9.5 10.6 18.2 4.9 8.6 9.3 15.4 9.6 15 0.4-0.4 24.9-42.8 54.4-94.2 30.8-53.6 55.3-95.2 57.3-97.3 2-2.1 5.5-4.5 7.7-5.4 2.7-1 6.3-1.4 11.1-1.2 6.1 0.3 7.8 0.8 11.5 3.4 2.4 1.7 5.7 5.3 10.4 12.8l0.5 249.7h-48l-0.3-78.3c-0.2-69.5-0.4-77.9-1.7-75.2-0.8 1.6-19.9 35.4-42.3 75-22.5 39.6-42.1 73.2-43.6 74.8-1.4 1.6-4.3 3.7-6.4 4.7-2.1 1.1-5.7 2.2-8 2.6-2.7 0.4-6.3 0-9.7-1-3.8-1.1-6.7-2.7-9.2-5.3-2.2-2.3-20.5-33.3-45.3-76.8-22.9-40.2-42.1-73.5-42.6-74-0.6-0.7-1 26.9-0.9 153.5h-48l0.5-249.5 2.1-4c1.1-2.2 3.6-5.3 5.5-6.9 1.8-1.6 4.7-3.5 6.4-4.3 1.6-0.7 5.7-1.3 9-1.3z"/>
		<path id="Path 1" fill-rule="evenodd" class="s1" d="m1356.4 31l283.1-0.1 3.5 2.3c1.9 1.3 4.4 4.1 5.5 6.3 2 3.9 2 6 2 155.5 0 116.9-0.3 152.3-1.2 155-0.7 1.9-2.6 4.9-7.4 9.5l-142.7 0.3c-134.4 0.2-142.9 0.1-146.1-1.5-2.1-1.1-4.3-3.4-5.5-5.8-2.1-4-2.1-4.3-2.1-156.5 0-150.5 0-152.6 2-156.5 1.1-2.2 3.5-5 5.4-6.2zm114.8 61.6c-2.9 3.2-6.9 9-8.7 12.9-1.9 3.8-10.4 27.9-18.8 53.5-8.5 25.5-22.4 67.8-30.9 94-8.5 26.1-15.7 48.5-16.1 49.7l-0.6 2.3h42.5c13.7-42.3 26.9-82.4 38.2-116.5 11.8-36 20.7-61.6 21.2-61 0.5 0.5 5.6 15.4 11.4 33 5.8 17.6 13.7 41.8 17.6 53.7 3.9 12 7.1 22.4 7.1 23.3 0 1.1-1.5 1.5-6.8 1.6-3.7 0.1-16.6 0.4-28.7 0.7l-22 0.7-19.5 34c26.7 0.9 47 1.3 62.2 1.3 25.5 0.2 27.8 0.3 28.3 1.9 0.3 1 2.4 7.4 4.8 14.3l4.2 12.5c32.9 0.4 42.5 0.1 42.4-0.3 0-0.4-10.8-33.8-24.1-74.2-13.2-40.5-27.4-83.4-31.6-95.5-4.1-12.1-9.1-25.6-11.2-30-2.9-6.2-5.3-9.5-10.4-14.3-5-4.7-7.9-6.6-11.9-7.7-2.9-0.9-8.8-1.6-13.3-1.5-6.8 0-8.9 0.4-14 2.9-3.8 1.8-7.9 5-11.3 8.7z"/>
		<path id="Path 2" class="s2" d="m1763 29.7c35.5 0.2 93.1 0.2 128 0 34.9-0.1 5.9-0.2-64.5-0.2-70.4 0-99 0.1-63.5 0.2zm220.5 167.3c0 64.6 0.1 91.2 0.2 59 0.2-32.2 0.2-85.1 0-117.5-0.1-32.5-0.2-6.1-0.2 58.5z"/>
		<path id="Path 3" class="s3" d="m272 177c-0.6 1.3-0.6 1.8 0 1.5 0.7-0.3 1.1 25.5 1.3 76.3l0.2 76.7c0.4-121.3 0.3-156.5 0-156.5-0.2 0-0.9 0.9-1.5 2z"/>
		<path id="Path 4" class="s4" d="m1650.4 328c0 6.3 0.1 8.8 0.3 5.5 0.2-3.3 0.2-8.5 0-11.5-0.2-3-0.3-0.3-0.3 6zm-196.9 32.7c29.2 0.2 77.1 0.2 106.5 0 29.4-0.1 5.6-0.2-53-0.2-58.6 0-82.7 0.1-53.5 0.2z"/>
		<path id="Path 5" class="s5" d="m1428.5 30.7c39 0.2 102.5 0.2 141 0 38.5-0.1 6.5-0.2-71-0.2-77.5 0-109 0.1-70 0.2zm-56.5 330c5.2 0.2 14 0.2 19.5 0 5.5-0.1 1.2-0.3-9.5-0.3-10.7 0-15.2 0.2-10 0.3zm243.5 0c1.7 0.2 4.8 0.2 7 0 2.2-0.2 0.8-0.4-3-0.4-3.8 0-5.7 0.2-4 0.4z"/>
		<path id="Path 6" fill-rule="evenodd" class="s0" d="m1095.5 65.4c49 0.2 50.2 0.2 58.5 2.5 4.7 1.3 12.1 3.9 16.5 5.8 4.4 1.8 11.4 5.5 15.5 8 4.2 2.6 11.8 9 17.1 14.3 5.2 5.2 11 11.7 12.9 14.5 1.8 2.7 4.9 8.4 7 12.5 2.1 4.1 4.9 11.3 6.3 16 1.4 4.7 3.2 11.4 3.9 15 1 4.8 1.3 17.1 1.2 46-0.1 33.3-0.4 40.8-1.9 48-1 4.7-2.8 11.4-4 15-1.2 3.6-4 10.1-6.2 14.5-2.2 4.4-6.7 11.6-10 16-3.3 4.4-8.9 10.5-12.4 13.7-3.5 3.1-10.4 8.1-15.4 11.2-5 3.1-12.6 7.1-17 8.8-4.4 1.7-12 3.9-17 5.1-8 1.8-13.5 2-51.5 2.4-27.4 0.3-45.9 0.1-52-0.6-5.2-0.6-13.3-2.2-18-3.5-4.7-1.3-11-3.3-14-4.5-3-1.1-8.2-3.8-11.5-5.8-3.3-2-8.5-5.5-11.5-7.8-3-2.3-8.2-7-11.5-10.4-3.3-3.5-8-9.1-10.3-12.4-2.4-3.4-6.1-9.6-8.1-13.7-2.1-4.1-4.8-10.6-6.1-14.5-1.3-3.9-2.9-10.4-3.7-14.5-1-5.1-1.6-17.7-2-39.5-0.3-20.5-0.1-36 0.6-43 0.6-6.1 2.1-14.8 3.3-19.5 1.1-4.7 3.6-12.1 5.5-16.5 1.9-4.4 6-11.8 9-16.5 3.1-4.7 9-11.9 13.2-16.1 4.2-4.1 10.3-9.3 13.6-11.6 3.3-2.2 9.6-5.8 14-8 4.4-2.2 11.1-5 15-6.3 3.8-1.3 10.2-2.9 14-3.6 5.2-0.9 19.7-1.2 57-1zm-65.5 54.2c-5.5 2.7-9.3 5.5-14.6 10.7-4.6 4.7-8.2 9.5-10.2 13.7-1.8 3.6-4 9.9-5 14-1.4 6.4-1.7 12.7-1.7 42.5 0 30.2 0.3 36 1.8 42 1 3.8 3.5 10.1 5.5 14 2.1 3.9 6.3 9.6 9.7 13 3.5 3.4 9 7.6 13 9.7 3.9 2 9.9 4.5 13.5 5.5 5.8 1.6 11.1 1.8 50.5 1.8 39.4 0 44.7-0.2 50.5-1.8 3.6-1 9.6-3.5 13.5-5.5 3.9-2.1 9.7-6.4 13.1-9.7 4.1-4.1 7.2-8.4 9.7-13.5 2-4.1 4.5-10.4 5.4-14 1.6-5.6 1.8-11.3 1.8-42.5 0-31.6-0.2-36.8-1.8-42.5-1-3.6-3.2-9.4-4.9-13-2.2-4.6-5.4-8.8-10.7-14-5.3-5.3-9.6-8.5-14.3-10.8-3.8-1.7-9.6-3.9-13-4.7-5.1-1.2-14.7-1.5-49.8-1.4-34.8 0-44.6 0.3-49 1.5-3 0.8-8.9 3.1-13 5zm-161-40.6h45.5l-0.8 7.2c-0.4 4-1.2 12.7-1.8 19.3-0.5 6.6-1.4 17.2-1.9 23.5-0.5 6.3-1.4 18-2 26-0.6 8-1.3 15.1-1.6 15.7-0.3 1-4.3 1.3-15.4 1.3-13.6 0-15-0.2-15-1.8 0-0.9-0.4-6.6-1-12.7-0.5-6.1-1.4-17.8-2-26-0.6-8.3-1.5-20.2-2-26.5-0.5-6.3-1.2-14.8-1.5-18.8zm402.7 0h44.9l-0.8 10.8c-0.5 5.9-1.7 20.9-2.8 33.2-1 12.4-2.5 28.5-4.4 49.1h-30l-1.9-23.8c-1-13.1-2.2-29.2-2.7-35.8-0.5-6.6-1.2-16.8-1.6-22.7zm-866.6 54h55.5c46.8 0 56.7 0.2 63.2 1.6 4.3 0.9 10.9 3 14.8 4.8 3.8 1.8 9.7 5.3 13 7.8 3.3 2.5 7.8 7 10.1 9.9 2.2 3 5.3 7.4 6.7 9.9 1.4 2.5 3.6 8.1 4.7 12.5 2 7.3 2.3 11.1 2.7 44 0.3 23.6 0.1 39.6-0.7 46.5-0.6 6-2.3 13.9-3.9 18.5-1.5 4.4-4.9 11.4-7.7 15.5-2.7 4.1-7.6 9.6-10.9 12.4-3.3 2.7-9.2 6.4-13 8.3-3.9 1.8-10.4 4-14.5 4.9-6.4 1.3-15.6 1.5-114.5 0.9l-8-2.8c-4.4-1.5-11-4.5-14.5-6.6-3.6-2.1-8.5-5.9-10.9-8.2-2.3-2.4-6.4-7.5-8.9-11.4-2.6-3.9-5.7-10.4-7.1-14.5-1.9-6.1-2.4-9.8-2.5-20-0.1-10.2 0.3-13.9 2.2-20.5 1.2-4.4 4.1-11.3 6.5-15.4 2.6-4.6 6.8-9.8 11.2-14 3.8-3.6 10.1-8.2 14-10.3 3.8-2 9.9-4.4 13.5-5.4 5.8-1.6 11.4-1.8 103.5-1.9l0.5 45.5-46.3 0.2c-40.9 0.3-46.6 0.5-49.2 2-1.7 0.9-4 2.7-5.2 4-1.2 1.2-2.9 3.9-3.9 5.8-1.2 2.6-1.6 5.2-1.3 10.1 0.3 5.4 0.9 7.2 3.4 10.4 1.6 2.1 4.8 4.7 7 5.7 3.6 1.6 8.1 1.8 52.5 1.8 48.3 0 48.5 0 53-2.2 3.1-1.6 5.2-3.6 9.5-11.3v-80.1l-2.8-4.2c-1.5-2.4-4.6-5.2-7-6.5-4.2-2.2-4.4-2.2-114.7-2.7zm229.5-0.1l64 0.3c62.7 0.3 64.1 0.4 72 2.6 4.4 1.2 11.8 4.1 16.5 6.3 4.6 2.2 11.2 6 14.5 8.3 3.3 2.4 8.9 7.5 12.5 11.4 3.7 4.1 8.4 10.7 11.2 15.9 2.7 5.1 5.8 13 10.1 28.8l0.7 124.5h-48v-56.8c0-47.3-0.3-57.7-1.5-62.5-0.9-3.1-2.6-7.8-3.9-10.5-1.3-2.6-5-7.1-8.3-10-3.3-3.1-8.2-6.3-11.3-7.5-5.4-2.1-6.9-2.2-99-2.7v150h-48v-89.5c0-78.9 0.1-89.9 1.5-93.3 0.9-2 2.6-5.1 3.8-6.7 1.3-1.7 4.7-4.3 7.7-5.8z"/>
		<path id="Path 7" class="s6" d="m1785.8 214c-0.2 51.2 0 93 0.5 93 0.4 0 0.7-41.9 0.7-93 0-51.2-0.2-93-0.5-93-0.3 0-0.6 41.9-0.7 93z"/>
		<path id="Path 8" class="s2" d="m1072.5 64.7c10.5 0.2 28 0.2 39 0 11-0.1 2.5-0.2-19-0.2-21.5 0-30.5 0.1-20 0.2zm735 17c5 0.2 13.3 0.2 18.5 0 5.2-0.1 1.2-0.3-9-0.3-10.2 0-14.5 0.2-9.5 0.3zm-1020 191.8c0 31.9 0.1 45.2 0.2 29.5 0.2-15.7 0.2-41.8 0-58-0.1-16.2-0.2-3.4-0.2 28.5z"/>
		<path id="Path 9" class="s7" d="m1234.4 224.5c0 5.5 0.1 7.5 0.3 4.5 0.2-3 0.2-7.5 0-10-0.2-2.5-0.3 0-0.3 5.5z"/>
		<path id="Path 10" class="s3" d="m1819.5 203.7c4.4 0.2 11.2 0.2 15 0 3.8-0.1 0.3-0.3-8-0.3-8.3 0-11.4 0.2-7 0.3z"/>
	</g>
</svg>